<svg width="864" height="651" viewBox="0 0 864 651" fill="none" xmlns="http://www.w3.org/2000/svg">
<g clip-path="url(#clip0)">
<path opacity="0.18" d="M431.473 2.43312C343.594 14.0712 260.603 67.1317 218.174 145.415C206.006 167.941 196.859 192.048 183.696 214.067C168.931 238.397 149.218 259.605 133.682 283.469C86.569 355.244 82.4316 450.964 116.666 528.801C142.464 587.498 191.707 621.682 256.019 621.925C287.678 622.027 317.33 610.875 348.38 609.355C391.235 607.327 436.239 621.013 477.41 631.11C523.408 642.383 570.339 653.413 617.635 650.513C664.931 647.614 713.424 628.88 741.635 590.843C769.562 553.212 773.679 502.625 767.128 456.235C760.578 409.845 744.454 365.341 735.834 319.336C725.897 266.114 725.694 210.6 706.832 159.871C677.911 82.1151 605.263 24.3102 524.422 6.20432C493.904 -0.527185 462.436 -1.80396 431.473 2.43312Z" fill="#6C63FF"/>
<path d="M566.648 107.216V521.137C566.643 530.719 562.834 539.908 556.058 546.686C549.282 553.464 540.092 557.277 530.507 557.287H351.281C341.69 557.287 332.492 553.479 325.711 546.699C318.929 539.92 315.119 530.724 315.119 521.137V107.216C315.116 102.468 316.049 97.767 317.864 93.38C319.679 88.9929 322.34 85.0062 325.696 81.6474C329.052 78.2886 333.037 75.6235 337.424 73.8043C341.81 71.985 346.512 71.0473 351.26 71.0447H530.507C535.255 71.0473 539.957 71.985 544.343 73.8043C548.73 75.6235 552.715 78.2886 556.071 81.6474C559.427 85.0062 562.088 88.9929 563.903 93.38C565.718 97.767 566.651 102.468 566.648 107.216Z" fill="#6C63FF"/>
<path d="M526.714 77.1881H355.032C335.722 77.1881 320.067 92.8378 320.067 112.143V515.439C320.067 534.744 335.722 550.394 355.032 550.394H526.714C546.024 550.394 561.679 534.744 561.679 515.439V112.143C561.679 92.8378 546.024 77.1881 526.714 77.1881Z" fill="#3F3D56"/>
<path d="M555.107 116.117V506.64C555.017 515.493 551.412 523.947 545.088 530.145C538.763 536.342 530.235 539.775 521.38 539.688H360.529C354.653 539.704 348.874 538.195 343.756 535.309C338.625 532.477 334.345 528.326 331.357 523.286C328.369 518.246 326.782 512.499 326.76 506.64V116.117C326.857 107.258 330.468 98.8006 336.8 92.6032C343.133 86.4058 351.667 82.9761 360.529 83.068H387.706V87.8732C387.772 91.0264 388.77 94.0895 390.575 96.6765C392.379 99.2634 394.909 101.259 397.846 102.411C399.785 103.174 401.847 103.573 403.931 103.587H478.647C482.908 103.587 486.999 101.912 490.035 98.9221C493.07 95.9327 494.808 91.8692 494.872 87.6096V83.068H521.238C529.946 83.0191 538.343 86.3057 544.703 92.2527C547.984 95.3027 550.601 98.9957 552.391 103.102C554.181 107.207 555.106 111.638 555.107 116.117Z" fill="#6C63FF"/>
<path opacity="0.1" d="M555.107 301.413V415.441H456.378C455.024 415.444 453.683 415.179 452.432 414.663C451.181 414.146 450.044 413.387 449.087 412.431C448.129 411.474 447.37 410.337 446.854 409.086C446.337 407.835 446.072 406.495 446.075 405.141V311.733C446.069 310.38 446.331 309.039 446.846 307.787C447.36 306.535 448.117 305.397 449.072 304.438C450.028 303.479 451.163 302.718 452.413 302.199C453.663 301.68 455.004 301.413 456.357 301.413H555.107Z" fill="#2F2E41"/>
<path d="M272.123 398.41H345.683C346.314 398.41 346.939 398.534 347.522 398.776C348.105 399.017 348.635 399.371 349.082 399.817C349.528 400.264 349.882 400.793 350.124 401.376C350.365 401.959 350.49 402.584 350.49 403.215C350.49 404.49 349.983 405.712 349.082 406.613C348.18 407.514 346.958 408.02 345.683 408.02H272.123C270.848 408.02 269.625 407.514 268.724 406.613C267.822 405.712 267.316 404.49 267.316 403.215C267.316 402.584 267.44 401.959 267.682 401.376C267.923 400.793 268.277 400.264 268.724 399.817C269.17 399.371 269.7 399.017 270.283 398.776C270.866 398.534 271.491 398.41 272.123 398.41Z" fill="#3F3D56"/>
<path d="M284.028 372.701L281.817 387.137L287.901 387.847L294.513 372.559L284.028 372.701Z" fill="#FCBDBA"/>
<path d="M289.707 385.718C289.425 385.47 289.174 385.191 288.956 384.886C288.655 385.069 288.319 385.186 287.97 385.232C287.621 385.277 287.266 385.249 286.928 385.15L283.906 384.623C283.366 384.565 282.839 384.421 282.344 384.197C282.311 384.177 282.272 384.167 282.233 384.167C282.194 384.167 282.155 384.177 282.121 384.197L281.452 385.454C280.354 387.676 279.713 390.096 279.566 392.571C285.324 393.926 291.239 394.499 297.15 394.274C297.625 394.333 298.107 394.267 298.548 394.082C298.989 393.897 299.374 393.599 299.665 393.219C299.776 392.964 299.834 392.687 299.834 392.408C299.834 392.129 299.776 391.853 299.665 391.597C299.39 391.009 298.998 390.483 298.514 390.05C298.029 389.618 297.462 389.289 296.846 389.083C295.284 388.414 293.682 387.887 292.14 387.056C291.266 386.735 290.445 386.284 289.707 385.718Z" fill="#6C63FF"/>
<path d="M324.712 377.101L322.805 391.577L328.89 392.165L335.197 376.736L324.712 377.101Z" fill="#FCBDBA"/>
<path opacity="0.1" d="M531.5 175.057V219.805C531.5 225.688 529.162 231.329 525.001 235.489C520.84 239.649 515.197 241.986 509.312 241.986H379.411L326.679 302.528V152.896H509.211C512.124 152.878 515.012 153.433 517.71 154.531C520.408 155.628 522.863 157.247 524.935 159.294C527.006 161.34 528.655 163.775 529.785 166.459C530.915 169.143 531.504 172.024 531.52 174.935L531.5 175.057Z" fill="#2F2E41"/>
<path d="M503.979 133.837H357.04C344.798 133.837 334.873 143.759 334.873 155.998V200.786C334.873 213.026 344.798 222.947 357.04 222.947H503.979C516.221 222.947 526.146 213.026 526.146 200.786V155.998C526.146 143.759 516.221 133.837 503.979 133.837Z" fill="white"/>
<path opacity="0.1" d="M360.65 211.877C359.903 211.937 359.153 211.819 358.46 211.533C357.92 211.143 357.463 210.651 357.115 210.083C356.766 209.516 356.534 208.885 356.432 208.228C352.802 197.056 345.318 186.148 334.122 182.802C331.202 194.724 331.425 207.133 331.648 219.44C331.648 222.724 332.013 226.475 334.63 228.422C336.353 229.476 338.351 229.991 340.369 229.902C353.091 230.364 365.727 227.653 377.139 222.015C380.587 220.312 387.645 213.641 381.074 211.472C379.046 210.803 374.685 211.816 372.576 211.837L360.65 211.877Z" fill="#2F2E41"/>
<path d="M522.617 149.51C531.443 149.51 538.599 142.357 538.599 133.533C538.599 124.709 531.443 117.556 522.617 117.556C513.79 117.556 506.635 124.709 506.635 133.533C506.635 142.357 513.79 149.51 522.617 149.51Z" fill="#6C63FF"/>
<path opacity="0.28" d="M522.617 149.51C531.443 149.51 538.599 142.357 538.599 133.533C538.599 124.709 531.443 117.556 522.617 117.556C513.79 117.556 506.635 124.709 506.635 133.533C506.635 142.357 513.79 149.51 522.617 149.51Z" fill="#2F2E41"/>
<path d="M377.037 162.304H480.898C482.065 162.304 483.184 162.767 484.01 163.593C484.835 164.418 485.299 165.537 485.299 166.704C485.299 167.871 484.835 168.99 484.01 169.815C483.184 170.64 482.065 171.103 480.898 171.103H377.037C375.87 171.103 374.751 170.64 373.925 169.815C373.1 168.99 372.636 167.871 372.636 166.704C372.636 165.537 373.1 164.418 373.925 163.593C374.751 162.767 375.87 162.304 377.037 162.304Z" fill="#6C63FF"/>
<path d="M480.898 185.762H377.037C374.607 185.762 372.636 187.732 372.636 190.162C372.636 192.592 374.607 194.562 377.037 194.562H480.898C483.328 194.562 485.299 192.592 485.299 190.162C485.299 187.732 483.328 185.762 480.898 185.762Z" fill="#6C63FF"/>
<path d="M283.5 272.075L292.525 322.317L283.5 376.371L298.143 377.486L319.479 316.62L312.239 268.385L283.5 272.075Z" fill="#3F3D56"/>
<path d="M334.041 268.385L350.307 335.253L337.144 381.318L324.144 380.649L325.949 341.355L303.011 277.853L334.041 268.385Z" fill="#3F3D56"/>
<path d="M378.904 212.931C380.853 211.775 382.946 210.881 385.13 210.275C385.471 210.128 385.842 210.064 386.212 210.089C386.582 210.113 386.942 210.226 387.26 210.417C387.6 210.732 387.822 211.155 387.888 211.614C388.233 213.087 388.113 214.631 387.544 216.034C390.005 217.386 392.585 218.513 395.25 219.399C395.807 219.493 396.339 219.702 396.81 220.013C397.281 220.323 397.683 220.729 397.988 221.204C398.156 221.699 398.169 222.232 398.028 222.735C397.887 223.238 397.598 223.686 397.197 224.022C396.387 224.673 395.424 225.106 394.399 225.279C387.706 226.84 376.815 225.279 375.233 217.291C374.888 215.547 375.517 215.263 376.916 214.229C377.565 213.763 378.214 213.337 378.904 212.931Z" fill="#FCBDBA"/>
<path d="M328.545 151.213C330.082 154.252 331.064 157.541 331.446 160.925C331.621 162.618 331.353 164.327 330.666 165.884C329.98 167.442 328.899 168.793 327.531 169.806C326.705 170.198 325.928 170.688 325.219 171.266C322.785 173.78 325.584 178.342 324.165 181.586C323.615 182.653 322.685 183.476 321.559 183.892C320.433 184.309 319.192 184.289 318.08 183.836C316.98 183.339 316.005 182.602 315.226 181.679C314.447 180.756 313.884 179.672 313.578 178.504C312.947 176.145 312.667 173.706 312.746 171.266L312.503 156.728C312.16 153.499 312.664 150.236 313.963 147.26C314.837 145.741 316.114 144.494 317.654 143.657C319.193 142.819 320.934 142.424 322.684 142.515C326.294 143.042 327.328 148.355 328.545 151.213Z" fill="#FCBDBA"/>
<path d="M379.248 223.738C379.248 223.738 351.382 248.616 349.394 248.616C347.407 248.616 335.055 232.984 335.055 232.984L334.041 268.384C330.594 270.405 327.009 272.18 323.312 273.697C317.228 276.17 309.663 278.461 303.031 277.752C289.483 276.515 283.521 271.973 283.521 271.973L291.856 188.581C291.856 188.581 307.635 177.247 313.03 178.97C316.886 179.66 320.835 179.66 324.692 178.97C332.48 177.936 340.45 188.581 340.45 188.581L350.794 222.603L375.131 213.965C376.727 214.986 377.975 216.466 378.71 218.212C379.445 219.957 379.633 221.884 379.248 223.738Z" fill="white"/>
<path d="M331.628 135.561C331.811 133.731 331.383 131.891 330.411 130.33C328.525 127.714 324.712 127.471 321.568 128.181C319.409 128.777 317.316 129.592 315.321 130.614C313.868 131.222 312.277 131.425 310.718 131.202C306.573 131.146 302.557 132.643 299.462 135.399C295.243 139.454 294.229 145.354 293.803 150.909C293.337 157.195 296.176 162.385 300.273 167.129C303.822 171.306 310.231 175.402 314.835 170.13C316.872 167.442 317.802 164.075 317.431 160.722C316.32 160.633 315.266 160.192 314.423 159.463C313.581 158.733 312.993 157.754 312.746 156.667C312.577 155.992 312.604 155.283 312.823 154.622C313.042 153.962 313.444 153.377 313.983 152.937C314.314 152.734 314.682 152.599 315.066 152.539C315.449 152.479 315.841 152.496 316.218 152.589C316.595 152.681 316.95 152.847 317.263 153.077C317.575 153.308 317.839 153.597 318.039 153.93C318.159 154.142 318.255 154.366 318.323 154.599C318.986 153.264 319.463 151.846 319.743 150.382C320.29 148.983 322.055 147.766 323.211 148.699C323.88 149.247 324.286 150.402 325.138 150.22C325.421 150.118 325.668 149.935 325.847 149.693C327.528 148.073 328.95 146.207 330.066 144.157C331.079 141.728 331.61 139.125 331.628 136.493C331.607 136.23 331.628 135.885 331.628 135.561Z" fill="#FC682D"/>
<path d="M276.868 132.398C273.939 132.039 270.97 132.587 268.362 133.969C265.755 135.35 263.634 137.498 262.286 140.123C259.061 146.712 261.373 154.478 261.901 161.797C262.382 164.336 261.986 166.963 260.777 169.247C259.568 171.531 257.619 173.337 255.248 174.368C250.077 177.47 244.155 179.558 240.017 183.958C236.767 187.578 234.85 192.199 234.582 197.056C234.314 199.086 234.667 201.15 235.596 202.976C236.506 204.316 237.687 205.449 239.064 206.301C242.873 209.074 247.198 211.058 251.785 212.137C256.372 213.217 261.128 213.369 265.774 212.587C274.982 210.701 283.277 203.564 285.224 194.339C287.252 184.607 282.324 174.935 280.458 165.183C280.106 164.04 279.99 162.838 280.119 161.649C280.248 160.46 280.619 159.31 281.208 158.269C282.75 156.242 285.63 155.714 287.84 154.397C299.969 147.28 285.752 133.655 276.868 132.398Z" fill="#FC682D"/>
<path d="M294.107 141.866H293.925C291.382 141.866 289.321 143.927 289.321 146.469V146.651C289.321 149.193 291.382 151.254 293.925 151.254H294.107C296.65 151.254 298.711 149.193 298.711 146.651V146.469C298.711 143.927 296.65 141.866 294.107 141.866Z" fill="#6C63FF"/>
<path d="M330.654 390.016C330.367 389.769 330.108 389.49 329.884 389.185C329.585 389.373 329.251 389.497 328.902 389.549C328.552 389.602 328.196 389.581 327.856 389.489L324.813 389.043C324.274 388.985 323.746 388.841 323.252 388.617H323.029L322.4 389.895C321.349 392.141 320.756 394.574 320.656 397.052C326.443 398.29 332.373 398.733 338.28 398.37C338.753 398.425 339.232 398.353 339.667 398.161C340.103 397.968 340.478 397.662 340.755 397.275C340.866 397.019 340.924 396.743 340.924 396.464C340.924 396.185 340.866 395.909 340.755 395.653C340.464 395.075 340.062 394.561 339.571 394.14C339.08 393.718 338.51 393.399 337.895 393.199C336.313 392.571 334.69 392.064 333.149 391.334C332.262 391.009 331.423 390.566 330.654 390.016Z" fill="#6C63FF"/>
<path d="M331.952 407.96H322.623L315.159 428.093H276.625L284.088 407.96H274.759L209.25 584.943H218.579L225.069 567.445H263.604L257.114 584.943H266.443L272.933 567.445H273.197V566.695L331.465 409.318V584.943H340.815V407.96H331.952ZM312.604 434.906L302.909 461.264H264.375L274.11 434.906H312.604ZM252.125 494.312L261.839 468.076H300.374L290.659 494.312H252.125ZM288.083 501.186L278.389 527.422H239.855L249.569 501.186H288.083ZM227.625 560.613L237.319 534.255H275.854L266.119 560.613H227.625Z" fill="#6C63FF"/>
<path d="M331.952 407.96H322.623L315.159 428.093H276.625L284.088 407.96H274.759L209.25 584.943H218.579L225.069 567.445H263.604L257.114 584.943H266.443L272.933 567.445H273.197V566.695L331.465 409.318V584.943H340.815V407.96H331.952ZM312.604 434.906L302.909 461.264H264.375L274.11 434.906H312.604ZM252.125 494.312L261.839 468.076H300.374L290.659 494.312H252.125ZM288.083 501.186L278.389 527.422H239.855L249.569 501.186H288.083ZM227.625 560.613L237.319 534.255H275.854L266.119 560.613H227.625Z" fill="url(#paint0_linear)"/>
<path d="M596.806 289.146H456.378C450.688 289.146 446.075 293.758 446.075 299.446V392.855C446.075 398.543 450.688 403.154 456.378 403.154H596.806C602.496 403.154 607.109 398.543 607.109 392.855V299.446C607.109 293.758 602.496 289.146 596.806 289.146Z" fill="white"/>
<path opacity="0.1" d="M426.24 302.528H363.754C360.651 302.528 358.136 305.043 358.136 308.144V308.165C358.136 311.266 360.651 313.781 363.754 313.781H426.24C429.343 313.781 431.858 311.266 431.858 308.165V308.144C431.858 305.043 429.343 302.528 426.24 302.528Z" fill="#2F2E41"/>
<path opacity="0.1" d="M426.24 324.851H363.754C360.651 324.851 358.136 327.366 358.136 330.468V330.488C358.136 333.59 360.651 336.104 363.754 336.104H426.24C429.343 336.104 431.858 333.59 431.858 330.488V330.468C431.858 327.366 429.343 324.851 426.24 324.851Z" fill="#2F2E41"/>
<path opacity="0.1" d="M426.24 347.174H363.754C360.651 347.174 358.136 349.689 358.136 352.791V352.811C358.136 355.913 360.651 358.427 363.754 358.427H426.24C429.343 358.427 431.858 355.913 431.858 352.811V352.791C431.858 349.689 429.343 347.174 426.24 347.174Z" fill="#2F2E41"/>
<path d="M582.487 387.401H470.697V304.9H472.725V385.373H582.487V387.401Z" fill="#6C63FF"/>
<path d="M472.015 357.758L470.96 356.014L499.151 338.699L540.586 345.106L577.194 323.979L578.208 325.723L540.972 347.215L540.627 347.154L499.577 340.808L472.015 357.758Z" fill="#6C63FF"/>
<path d="M500.612 344.376C503.054 344.376 505.033 342.397 505.033 339.956C505.033 337.515 503.054 335.536 500.612 335.536C498.17 335.536 496.19 337.515 496.19 339.956C496.19 342.397 498.17 344.376 500.612 344.376Z" fill="#6C63FF"/>
<path d="M540.789 350.56C543.231 350.56 545.21 348.581 545.21 346.14C545.21 343.699 543.231 341.72 540.789 341.72C538.347 341.72 536.368 343.699 536.368 346.14C536.368 348.581 538.347 350.56 540.789 350.56Z" fill="#6C63FF"/>
<path d="M576.951 329.94C579.392 329.94 581.372 327.961 581.372 325.52C581.372 323.079 579.392 321.1 576.951 321.1C574.509 321.1 572.529 323.079 572.529 325.52C572.529 327.961 574.509 329.94 576.951 329.94Z" fill="#6C63FF"/>
<path opacity="0.28" d="M500.612 344.376C503.054 344.376 505.033 342.397 505.033 339.956C505.033 337.515 503.054 335.536 500.612 335.536C498.17 335.536 496.19 337.515 496.19 339.956C496.19 342.397 498.17 344.376 500.612 344.376Z" fill="#2F2E41"/>
<path opacity="0.28" d="M540.789 350.56C543.231 350.56 545.21 348.581 545.21 346.14C545.21 343.699 543.231 341.72 540.789 341.72C538.347 341.72 536.368 343.699 536.368 346.14C536.368 348.581 538.347 350.56 540.789 350.56Z" fill="#2F2E41"/>
<path opacity="0.28" d="M576.951 329.94C579.392 329.94 581.372 327.961 581.372 325.52C581.372 323.079 579.392 321.1 576.951 321.1C574.509 321.1 572.529 323.079 572.529 325.52C572.529 327.961 574.509 329.94 576.951 329.94Z" fill="#2F2E41"/>
</g>
<defs>
<linearGradient id="paint0_linear" x1="401.963" y1="438.434" x2="107.364" y2="620.036" gradientUnits="userSpaceOnUse">
<stop offset="0.01"/>
<stop offset="0.08" stop-opacity="0.69"/>
<stop offset="0.21" stop-opacity="0.32"/>
<stop offset="1" stop-opacity="0"/>
</linearGradient>
<clipPath id="clip0">
<rect width="864" height="651" fill="white"/>
</clipPath>
</defs>
</svg>
